<svg id="Layer_1" data-name="Layer 1" xmlns="http://www.w3.org/2000/svg" viewBox="0 0 1007 621.11"><defs><style>.cls-1{stroke:#000;stroke-miterlimit:10;stroke-width:7px;}</style></defs><title>med-app-icon</title><path class="cls-1" d="M1724.05,834.51c-72.06-8.55-135.56-5.73-189,8.34V841.1c-.64-60.1-14.47-123.53-41.1-188.53a12,12,0,0,0-16-6.45c-54.24,23.92-100,52.2-136.23,84.19q-1.08-2.14-2.19-4.3c-22.36-43.1-55.26-86.32-97.79-128.45a12,12,0,0,0-17.26.31q-62.65,66.71-95.23,133.79c-36.5-32.55-82.74-61.28-137.75-85.54a12,12,0,0,0-16,6.45C948.82,717.57,935,781,934.35,841.1v1.75c-53.47-14.07-117-16.89-189-8.34a12.05,12.05,0,0,0-10.63,12.14c1,73.26,12.66,137.85,34.6,192,23.63,58.33,58.49,102.48,103.61,131.22,40,25.47,87.47,38.35,141.33,38.35,3.53,0,7.1-.06,10.68-.17,60.95-1.88,130.13-19.91,205.66-53.57h8.23c75.53,33.66,144.71,51.69,205.66,53.57,3.59.12,7.15.17,10.68.17,53.86,0,101.36-12.88,141.33-38.35,45.12-28.74,80-72.89,103.62-131.22,21.93-54.11,33.57-118.7,34.59-192A12.05,12.05,0,0,0,1724.05,834.51ZM1476.24,673.32c22.45,58.08,34.11,114.55,34.68,168,.62,57.75-11.79,108.95-36.88,152.18-20.86,36-50.26,65.62-87.38,88.17-32.44,19.71-70.76,34-114.23,42.52,32.9-40.31,58.24-80.6,75.5-120.09,20.81-47.58,30.52-95.38,28.86-142.07-1.29-36.43-9.54-72.92-24.56-108.82C1384.94,723.18,1426.56,696.35,1476.24,673.32Zm-242.71-49.77c36.49,37.52,64.91,75.68,84.57,113.56q3.27,6.33,6.24,12.67c10.85-3.33,10.85,9.62,10.85,9.62s.28,2.82-5.42,2.6c14,33.39,21.74,67.24,22.93,100.93,1.53,43.05-7.5,87.31-26.85,131.56-19.41,44.4-49.75,90.08-90.22,135.85h-2.3c-38.3-42.27-67.39-85-86.52-127-19.51-42.86-29.19-86.25-28.77-129s10.94-86.13,31.29-129C1168.46,705.05,1196.76,664.12,1233.53,623.55ZM958.45,841.36c.57-53.49,12.24-110,34.68-168,50.55,23.43,92.77,50.8,125.73,81.51-50.23,123.08-24.53,246.66,77.11,369.21-43.07-8.58-81.06-22.77-113.25-42.33-37.12-22.55-66.52-52.21-87.39-88.17C970.24,950.31,957.84,899.11,958.45,841.36Zm65.72,342.56c-53.36,1.65-99.89-9.93-138.32-34.41-40.81-26-72.51-66.36-94.23-120C771.9,980.91,761,923,759,857.24c67.63-7,126.74-3.37,176,10.78,3,51.3,16.22,97.49,39.51,137.62,22.91,39.48,55.11,72,95.71,96.67,33.43,20.31,72.47,35.19,116.41,44.42C1127.29,1169.92,1072.78,1182.42,1024.17,1183.92Zm653.58-154.36c-21.72,53.59-53.42,94-94.23,120-38.43,24.48-85,36.07-138.31,34.41-48.62-1.5-103.13-14-162.45-37.19,43.94-9.23,83-24.11,116.41-44.42,40.6-24.67,72.81-57.19,95.71-96.67,23.29-40.13,36.53-86.32,39.51-137.62,49.22-14.15,108.33-17.78,176-10.78C1708.42,923,1697.47,980.91,1677.75,1029.56Z" transform="translate(-731.19 -590.57)"/></svg>